<svg xmlns="http://www.w3.org/2000/svg" xmlns:xlink="http://www.w3.org/1999/xlink" width="2000" zoomAndPan="magnify" viewBox="0 0 1500 1499.999933" height="2000" preserveAspectRatio="xMidYMid meet" version="1.2"><g id="e385fc00c8"><path style=" stroke:none;fill-rule:nonzero;fill:#ffffff;fill-opacity:1;" d="M 768.332031 401.339844 C 768.902344 406.570312 769.585938 411.785156 770.375 416.984375 C 771.167969 422.183594 772.070312 427.367188 773.078125 432.527344 C 774.089844 437.691406 775.207031 442.828125 776.4375 447.945312 C 777.664062 453.058594 779 458.144531 780.441406 463.203125 C 781.886719 468.261719 783.433594 473.289062 785.089844 478.28125 C 786.746094 483.273438 788.507812 488.230469 790.371094 493.148438 C 792.238281 498.066406 794.207031 502.945312 796.277344 507.78125 C 798.347656 512.613281 800.523438 517.402344 802.796875 522.148438 C 805.070312 526.890625 807.441406 531.582031 809.914062 536.226562 C 812.386719 540.871094 814.957031 545.457031 817.625 549.992188 C 820.292969 554.527344 823.050781 559.003906 825.910156 563.417969 C 828.765625 567.835938 831.710938 572.191406 834.753906 576.484375 C 837.792969 580.777344 840.921875 585.003906 844.140625 589.164062 C 847.359375 593.324219 850.667969 597.414062 854.058594 601.4375 C 857.449219 605.457031 860.925781 609.402344 864.484375 613.277344 C 868.042969 617.152344 871.683594 620.949219 875.402344 624.667969 C 879.121094 628.386719 882.917969 632.027344 886.792969 635.585938 C 890.664062 639.144531 894.613281 642.621094 898.632812 646.011719 C 902.652344 649.402344 906.742188 652.710938 910.902344 655.929688 C 915.066406 659.148438 919.289062 662.277344 923.582031 665.316406 C 927.875 668.359375 932.230469 671.304688 936.648438 674.160156 C 941.066406 677.019531 945.542969 679.78125 950.074219 682.445312 C 954.609375 685.113281 959.199219 687.683594 963.839844 690.15625 C 968.484375 692.628906 973.175781 695 977.921875 697.277344 C 982.664062 699.550781 987.453125 701.722656 992.289062 703.792969 C 997.125 705.867188 1002 707.835938 1006.917969 709.699219 C 1011.835938 711.566406 1016.792969 713.324219 1021.785156 714.980469 C 1026.777344 716.636719 1031.804688 718.1875 1036.863281 719.628906 C 1041.921875 721.074219 1047.007812 722.40625 1052.125 723.636719 C 1057.238281 724.863281 1062.375 725.984375 1067.539062 726.992188 C 1072.703125 728.003906 1077.882812 728.90625 1083.082031 729.695312 C 1088.285156 730.488281 1093.5 731.167969 1098.726562 731.742188 C 1200.148438 742.847656 1331.058594 750.035156 1500.066406 750.035156 C 1331.0625 750.035156 1200.148438 757.21875 1098.726562 768.332031 C 1093.5 768.902344 1088.285156 769.585938 1083.082031 770.375 C 1077.882812 771.167969 1072.699219 772.066406 1067.539062 773.078125 C 1062.375 774.089844 1057.238281 775.207031 1052.121094 776.4375 C 1047.007812 777.664062 1041.921875 779 1036.863281 780.441406 C 1031.804688 781.886719 1026.777344 783.433594 1021.785156 785.089844 C 1016.792969 786.746094 1011.835938 788.507812 1006.917969 790.371094 C 1002 792.238281 997.125 794.203125 992.289062 796.277344 C 987.453125 798.347656 982.664062 800.519531 977.921875 802.792969 C 973.175781 805.070312 968.484375 807.441406 963.839844 809.914062 C 959.199219 812.386719 954.609375 814.957031 950.074219 817.625 C 945.542969 820.289062 941.066406 823.050781 936.648438 825.90625 C 932.230469 828.761719 927.875 831.710938 923.582031 834.753906 C 919.289062 837.792969 915.0625 840.921875 910.902344 844.140625 C 906.742188 847.359375 902.652344 850.664062 898.632812 854.058594 C 894.613281 857.449219 890.664062 860.925781 886.792969 864.484375 C 882.917969 868.042969 879.121094 871.683594 875.402344 875.402344 C 871.683594 879.121094 868.042969 882.917969 864.484375 886.792969 C 860.925781 890.664062 857.449219 894.613281 854.058594 898.632812 C 850.664062 902.652344 847.359375 906.742188 844.140625 910.902344 C 840.921875 915.0625 837.792969 919.289062 834.753906 923.582031 C 831.710938 927.875 828.765625 932.230469 825.90625 936.648438 C 823.050781 941.066406 820.289062 945.542969 817.625 950.074219 C 814.957031 954.609375 812.386719 959.199219 809.914062 963.839844 C 807.441406 968.484375 805.070312 973.175781 802.796875 977.921875 C 800.519531 982.664062 798.347656 987.453125 796.277344 992.289062 C 794.203125 997.125 792.238281 1002 790.371094 1006.917969 C 788.507812 1011.835938 786.746094 1016.792969 785.089844 1021.785156 C 783.433594 1026.777344 781.886719 1031.804688 780.441406 1036.863281 C 779 1041.921875 777.664062 1047.007812 776.4375 1052.125 C 775.207031 1057.238281 774.089844 1062.375 773.078125 1067.539062 C 772.066406 1072.699219 771.167969 1077.882812 770.375 1083.082031 C 769.585938 1088.285156 768.902344 1093.496094 768.332031 1098.726562 C 757.21875 1200.144531 750.035156 1331.058594 750.035156 1500.066406 C 750.035156 1331.0625 742.851562 1200.144531 731.742188 1098.726562 C 731.167969 1093.5 730.488281 1088.285156 729.695312 1083.082031 C 728.90625 1077.882812 728.003906 1072.703125 726.992188 1067.539062 C 725.984375 1062.375 724.863281 1057.238281 723.636719 1052.125 C 722.40625 1047.007812 721.074219 1041.921875 719.628906 1036.863281 C 718.1875 1031.804688 716.636719 1026.777344 714.980469 1021.785156 C 713.324219 1016.792969 711.566406 1011.835938 709.699219 1006.917969 C 707.835938 1002 705.867188 997.125 703.792969 992.289062 C 701.722656 987.453125 699.550781 982.664062 697.277344 977.921875 C 695 973.175781 692.628906 968.484375 690.15625 963.839844 C 687.683594 959.199219 685.113281 954.609375 682.445312 950.074219 C 679.78125 945.542969 677.019531 941.066406 674.160156 936.648438 C 671.304688 932.230469 668.359375 927.875 665.316406 923.582031 C 662.277344 919.289062 659.148438 915.0625 655.929688 910.902344 C 652.710938 906.742188 649.402344 902.652344 646.011719 898.632812 C 642.621094 894.613281 639.144531 890.664062 635.585938 886.792969 C 632.027344 882.917969 628.386719 879.121094 624.667969 875.402344 C 620.949219 871.683594 617.152344 868.042969 613.277344 864.484375 C 609.402344 860.925781 605.457031 857.449219 601.4375 854.058594 C 597.414062 850.667969 593.324219 847.359375 589.164062 844.140625 C 585.003906 840.921875 580.777344 837.792969 576.484375 834.753906 C 572.191406 831.710938 567.835938 828.765625 563.417969 825.910156 C 559.003906 823.050781 554.527344 820.292969 549.992188 817.625 C 545.457031 814.957031 540.871094 812.386719 536.226562 809.914062 C 531.582031 807.441406 526.890625 805.070312 522.148438 802.796875 C 517.402344 800.523438 512.613281 798.347656 507.78125 796.277344 C 502.945312 794.207031 498.066406 792.238281 493.148438 790.371094 C 488.230469 788.507812 483.273438 786.746094 478.28125 785.089844 C 473.289062 783.433594 468.261719 781.886719 463.203125 780.441406 C 458.144531 779 453.058594 777.664062 447.945312 776.4375 C 442.828125 775.207031 437.691406 774.089844 432.527344 773.078125 C 427.367188 772.066406 422.183594 771.167969 416.984375 770.375 C 411.785156 769.585938 406.570312 768.902344 401.339844 768.332031 C 299.921875 757.21875 169.003906 750.035156 0 750.035156 C 169.003906 750.035156 299.921875 742.847656 401.339844 731.742188 C 406.570312 731.167969 411.785156 730.488281 416.984375 729.695312 C 422.183594 728.90625 427.367188 728.003906 432.527344 726.992188 C 437.691406 725.984375 442.828125 724.863281 447.945312 723.636719 C 453.058594 722.40625 458.144531 721.070312 463.203125 719.628906 C 468.261719 718.1875 473.289062 716.636719 478.28125 714.980469 C 483.273438 713.324219 488.230469 711.5625 493.148438 709.699219 C 498.066406 707.832031 502.945312 705.863281 507.78125 703.792969 C 512.613281 701.722656 517.402344 699.550781 522.148438 697.273438 C 526.890625 695 531.582031 692.628906 536.226562 690.15625 C 540.871094 687.683594 545.457031 685.113281 549.992188 682.445312 C 554.527344 679.777344 559.003906 677.015625 563.417969 674.160156 C 567.835938 671.304688 572.191406 668.355469 576.484375 665.316406 C 580.777344 662.277344 585.003906 659.148438 589.164062 655.925781 C 593.324219 652.707031 597.414062 649.402344 601.4375 646.011719 C 605.457031 642.617188 609.402344 639.144531 613.277344 635.585938 C 617.148438 632.023438 620.945312 628.386719 624.667969 624.667969 C 628.386719 620.945312 632.023438 617.148438 635.585938 613.277344 C 639.144531 609.402344 642.617188 605.457031 646.011719 601.433594 C 649.402344 597.414062 652.707031 593.324219 655.925781 589.164062 C 659.148438 585.003906 662.277344 580.777344 665.316406 576.484375 C 668.355469 572.191406 671.304688 567.835938 674.160156 563.417969 C 677.015625 559.003906 679.777344 554.527344 682.445312 549.992188 C 685.113281 545.457031 687.683594 540.871094 690.15625 536.226562 C 692.628906 531.582031 695 526.890625 697.273438 522.148438 C 699.550781 517.402344 701.722656 512.613281 703.792969 507.78125 C 705.863281 502.945312 707.832031 498.066406 709.699219 493.148438 C 711.5625 488.230469 713.324219 483.273438 714.980469 478.28125 C 716.636719 473.289062 718.1875 468.261719 719.628906 463.203125 C 721.070312 458.144531 722.40625 453.058594 723.636719 447.945312 C 724.863281 442.828125 725.984375 437.691406 726.992188 432.527344 C 728.003906 427.367188 728.90625 422.183594 729.695312 416.984375 C 730.488281 411.785156 731.167969 406.570312 731.742188 401.339844 C 742.847656 299.921875 750.035156 169.007812 750.035156 0 C 750.035156 169.003906 757.21875 299.921875 768.332031 401.339844 Z M 768.332031 401.339844 "/></g></svg>